PathFileType	4	(X/Y/Z)	C:/Users/beibeiliu/ov580/test_trc/User2\sequence.39.1_training_dense_left.trc
DataRate	CameraRate	NumFrames	NumMarkers	Units	OrigDataRate	OrigDataStartFrame	OrigNumFrames
120	120	21	19	mm	120	60	89
Frame#	Time	ThumbCMC			ThumbMCP			ThumbIP			ThumbTip			IndexMCP			IndexPIP			IndexTip			MiddleMCP			MiddlePIP			MiddleTip			RingMCP			RingPIP			RingTip			PinkyMCP			PinkyPIP			PinkyTip			BackHand1			BackHand2			BackHand3	
		X0	Y0	Z0	X1	Y1	Z1	X2	Y2	Z2	X3	Y3	Z3	X4	Y4	Z4	X5	Y5	Z5	X6	Y6	Z6	X7	Y7	Z7	X8	Y8	Z8	X9	Y9	Z9	X10	Y10	Z10	X11	Y11	Z11	X12	Y12	Z12	X13	Y13	Z13	X14	Y14	Z14	X15	Y15	Z15	X16	Y16	Z16	X17	Y17	Z17	X18	Y18	Z18	
59	0.491667	-147.7	23.8407	6.34058	-123.017	27.8789	-11.4851	-97.379	34.7227	-31.5487	-79.0605	35.7525	-51.7058	-154.466	43.6929	-83.085	-141.531	43.4072	-109.667	-134.451	34.8557	-132.369	-176.244	24.4373	-96.5989	-155.519	7.49646	-119.296	-137.22	-26.8186	-108.53	-190.387	4.94341	-96.3834	-168.51	-12.5144	-114.019	-146.786	-36.7961	-97.6087	-204.437	-18.0409	-81.5371	-179.845	-36.8418	-102.587	-158.166	-46.6124	-87.9778	-213.133	7.71917	-33.7676	-219.102	7.04994	-2.90568	-184.854	32.9998	-12.9837	
60	0.5	-149.763	28.919	5.11401	-125.768	34.1146	-11.5062	-96.6501	44.6574	-33.9077	-80.9804	45.4235	-49.7222	-159.132	42.2307	-80.3219	-148.007	42.19	-109.527	-134.305	32.8685	-138.455	-170.962	23.4865	-96.2965	-150.954	1.06296	-115.078	-127.691	-26.2117	-90.688	-185.846	-0.206152	-96.6194	-162.833	-21.2391	-109.018	-142.532	-33.8163	-84.4439	-196.667	-21.1691	-83.6668	-171.604	-40.7597	-95.9032	-149.606	-47.5199	-73.911	-209.21	9.06392	-39.6675	-216.599	6.68095	-2.72985	-189.395	29.2148	-16.1533	
61	0.508333	-151.504	33.8514	3.38788	-126.314	41.6033	-10.3342	-99.9418	51.9537	-29.358	-80.033	57.2331	-47.1874	-163.326	40.9125	-82.6796	-151.009	40.5819	-112.7	-133.416	33.2584	-136.649	-168.465	18.4169	-97.9763	-143.693	-6.14606	-109.063	-126.901	-23.718	-77.8303	-181.894	-7.42957	-94.7156	-153.623	-24.0995	-101.637	-140.887	-34.5936	-68.3668	-190.48	-29.0039	-84.7945	-158.946	-42.7288	-85.7076	-146.781	-39.1074	-57.2434	-209.564	5.33432	-41.6742	-216.174	4.84792	-7.38541	-189.458	34.7704	-14.6317	
62	0.516667	-155.335	37.6609	3.9803	-129.842	48.4303	-13.5356	-106.394	58.0614	-29.1897	-86.5622	64.7932	-49.612	-166.286	43.0969	-85.9285	-155.569	41.7263	-112.914	-135.735	25.8446	-136.828	-168.937	17.3387	-95.9815	-137.929	-3.98187	-104.601	-126.732	-19.9126	-70.749	-174.763	-10.2573	-93.9382	-146.6	-23.3652	-95.1847	-138.329	-27.2282	-57.0409	-182.308	-29.6922	-80.4404	-150.423	-41.6429	-74.3913	-144.625	-34.0331	-41.634	-210.102	6.36971	-36.923	-215.315	5.40383	-6.06072	-192.375	33.4724	-16.8551	
63	0.525	-158.39	40.6783	3.02006	-133.508	52.5216	-11.8178	-109.96	63.604	-31.0775	-91.6494	66.7639	-52.5632	-172.118	45.7178	-83.0671	-160.732	41.9195	-114.714	-135.859	26.0133	-130.626	-170.063	17.6902	-96.7312	-140.215	1.27119	-104.248	-124.909	-7.88118	-67.4785	-173.546	-6.55122	-89.7806	-142.147	-19.7571	-88.8625	-137.691	-21.3226	-53.4701	-177.846	-25.5419	-76.3047	-145.738	-37.566	-66.6443	-144.673	-23.4649	-35.3844	-208.504	6.79115	-37.6279	-220.452	1.52449	-4.81089	-195.51	36.6518	-18.2382	
64	0.533333	-162.058	42.7511	1.91102	-133.891	53.7965	-8.56872	-107.477	66.0173	-34.756	-95.1755	59.262	-56.2078	-178.837	49.5985	-82.39	-164.963	45.1068	-113.027	-137.69	31.3656	-118.493	-174.269	27.1027	-95.6168	-142.529	8.03115	-104.588	-128.619	-1.31835	-68.3554	-174.056	-3.23163	-92.4987	-143.885	-13.8914	-90.6137	-139.043	-12.1386	-53.3267	-174.318	-20.8488	-75.6907	-143.154	-30.0268	-65.0513	-143.991	-24.3386	-33.1956	-210.989	6.80267	-37.6072	-218.581	3.19048	-4.69266	-196.667	37.0638	-15.6347	
65	0.541667	-159.781	43.6325	3.99538	-128.888	51.5909	-13.1415	-104.446	52.3046	-31.8875	-97.2508	41.7955	-60.231	-179.583	56.1552	-74.5187	-165.508	49.7395	-107.554	-134.153	31.4848	-104.637	-180.811	36.8211	-94.0398	-152.898	18.2125	-110.34	-134.315	3.13425	-80.8428	-177.823	10.3512	-92.9335	-149.526	-3.27294	-96.4365	-141.429	-9.65287	-62.563	-176.833	-14.7426	-80.3177	-147.821	-27.4498	-74.0943	-141.322	-17.8365	-42.8713	-211.529	9.86192	-34.1436	-222.279	5.25139	-6.99814	-200.689	38.1578	-13.2506	
66	0.55	-157.301	44.4839	5.04346	-124.728	47.9792	-9.4537	-101.46	42.5347	-36.7357	-100.724	26.1345	-64.1782	-177.409	60.0476	-73.706	-160.773	55.17	-104.952	-131.311	35.1991	-96.2162	-188.67	41.3587	-92.7865	-163.852	34.2544	-116.186	-135.715	11.4757	-91.6313	-187.898	16.6274	-93.414	-162.16	4.67399	-108.45	-141.467	-2.96119	-81.6083	-189.27	-9.59437	-80.4729	-157.364	-17.0184	-90.2699	-140.618	-23.1848	-63.2092	-212.867	12.9064	-32.6412	-220.571	5.85473	-5.68185	-201.179	40.6892	-11.2184	
67	0.558333	-156.684	44.0718	4.74358	-123.574	41.5365	-10.813	-99.658	34.2375	-39.7624	-109.273	13.7011	-64.0976	-174.308	58.3123	-75.8674	-153.074	56.0539	-101.756	-125.29	35.1497	-94.2806	-191.461	43.0995	-89.3607	-169.161	38.239	-119.062	-138.165	17.0521	-110.435	-195.352	20.9718	-90.9024	-171.188	14.92	-114.26	-142.491	3.44097	-99.5074	-194.21	-6.86003	-84.4282	-166.94	-12.8402	-102.918	-139.726	-16.775	-84.9774	-214.023	11.5246	-33.4418	-219.473	5.98441	-6.16265	-200.973	39.6734	-11.7313	
68	0.566667	-156.036	40.5333	6.63654	-121.691	36.9712	-11.4766	-104.067	26.9824	-38.6814	-106.747	8.86363	-66.3169	-165.739	61.4371	-76.1334	-139.94	54.0102	-98.7664	-119.148	30.2811	-93.0889	-191.401	46.9988	-88.0541	-172.826	45.3542	-118.592	-138.366	29.9464	-124.763	-196.73	24.969	-87.3114	-178.909	22.5838	-116.543	-148.429	9.82112	-119.874	-198.86	-7.22137	-82.7504	-176.766	-7.17764	-108.698	-146.952	-9.66502	-108.536	-211.913	12.5302	-36.1979	-223.054	3.72032	-6.15407	-200.638	37.3734	-12.2652	
69	0.575	-158.987	37.118	6.41329	-124.389	35.0561	-15.1094	-103.57	26.8605	-42.4002	-102.912	10.533	-67.2961	-160.263	64.8014	-72.7702	-135.079	54.935	-93.9435	-113.259	33.023	-94.2321	-187.52	49.0738	-90.3441	-170.366	49.2554	-118.271	-135.831	37.0627	-132.806	-195.463	23.0546	-90.1964	-180.082	23.452	-117.125	-147.08	17.9408	-125.651	-197.478	-5.50547	-84.3537	-177.382	-5.18959	-109.117	-151.479	-9.48919	-117.358	-214.493	10.6594	-33.1144	-222.657	1.01477	-2.68167	-201.508	37.2725	-10.1371	
70	0.583333	-158.682	40.4554	5.97227	-129.692	34.393	-15.8876	-104.964	28.9531	-43.5569	-100.392	16.2689	-69.3189	-162.286	65.5928	-73.2153	-139.399	62.9706	-91.2709	-111.467	39.9542	-100.731	-184.024	50.2945	-87.0335	-165.875	49.2644	-117.016	-134.222	43.6789	-132.585	-191.476	21.1972	-91.2724	-167.074	22.5528	-116.945	-134.296	13.9723	-123.539	-191.592	-7.61554	-86.5856	-169.956	-11.8911	-106.515	-136.779	-8.66543	-108.044	-214.297	9.78931	-37.0422	-219.863	4.38413	-2.96439	-203.21	37.4838	-9.8689	
71	0.591667	-160.695	42.4113	2.16333	-129.32	37.9465	-13.7943	-108.406	33.3497	-43.2699	-95.0669	24.7541	-67.7601	-167.678	60.5988	-76.2211	-143.177	61.1892	-96.4142	-116.479	48.6255	-108.688	-182.676	46.8556	-88.2697	-158.401	47.8148	-114.468	-124.651	37.9307	-130.078	-180.8	20.3789	-92.866	-158.981	16.8204	-110.186	-121.087	7.74379	-108.615	-184.154	-9.47881	-81.2769	-152.946	-10.8003	-96.6839	-122.121	-8.84696	-87.6596	-212.757	9.262	-38.8698	-221.313	1.87825	-5.72094	-203.841	40.2806	-11.2353	
72	0.6	-161.233	42.4278	7.51214	-131.751	40.8289	-14.6205	-106.873	43.5214	-41.0308	-96.3599	36.1135	-65.5442	-170.783	61.7722	-76.395	-151.747	62.5442	-98.9249	-126.358	56.9687	-113.846	-177.394	42.3952	-91.1147	-149.512	38.0647	-113.84	-117.946	27.6979	-120.159	-174.133	15.1631	-91.0261	-143.979	11.2157	-102.721	-111.852	3.928	-89.2034	-175.773	-7.30439	-79.0561	-143.24	-13.4359	-85.0956	-116.465	-13.6096	-66.7507	-214.107	7.05174	-36.9469	-221.155	1.36563	-2.21914	-205.006	36.2876	-9.96869	
73	0.608333	-165.06	43.1775	8.5234	-139.315	47.3203	-16.981	-114.496	55.8845	-43.2428	-98.4912	55.7196	-61.6834	-174.374	63.3964	-73.272	-155.047	67.0236	-99.4054	-129.897	55.8329	-117.799	-175.268	42.6065	-87.1389	-147.721	35.4109	-107.565	-109.76	19.6847	-104.95	-172.07	15.5336	-87.1491	-137.793	9.02897	-93.5518	-111.052	0.370953	-72.412	-169.313	-8.59234	-79.2055	-137.609	-14.81	-75.5073	-120.086	-6.55137	-48.69	-211.228	10.4532	-37.5477	-220.428	-2.09567	-7.408	-205.07	36.0791	-11.327	
74	0.616667	-170.487	46.0188	6.92604	-144.236	59.5472	-13.9623	-124.57	69.6553	-43.386	-109.317	74.1649	-61.3527	-179.327	64.8275	-74.4775	-160.942	65.8932	-100.51	-131.553	59.0497	-113.419	-177.724	44.9345	-89.6302	-147.596	36.5176	-105.173	-113.98	24.6785	-94.4876	-176.11	20.1718	-86.646	-140.63	10.588	-94.231	-120.836	5.58088	-71.0013	-173.81	-7.26074	-79.5156	-143.304	-7.46987	-76.3723	-127.714	-2.72169	-47.6011	-213.611	6.81995	-35.2588	-221.982	3.11845	-2.86611	-207.424	38.7328	-9.10617	
75	0.625	-168.622	51.5293	7.71847	-142.694	58.8659	-14.0558	-121.533	69.5388	-38.5231	-107.249	69.3182	-61.7692	-183.99	67.817	-74.198	-161.636	67.8641	-100.941	-131.691	59.7836	-107.038	-184.124	51.6951	-87.8426	-153.749	42.5497	-107.196	-120.117	25.3251	-90.2227	-181.455	23.158	-90.1575	-149.666	19.9642	-97.2487	-128.459	7.34458	-66.862	-180.971	0.349009	-78.8722	-147.924	-5.68221	-80.3278	-134.51	-0.0887865	-49.7102	-215.204	17.8869	-37.6376	-223.469	6.60129	-0.900618	-210.581	40.3523	-6.55009	
76	0.633333	-159.566	48.4572	7.51718	-130.452	49.22	-9.3764	-109.096	50.6773	-36.9702	-93.1494	48.8784	-59.5022	-175.252	75.3326	-66.7823	-155.724	75.6451	-96.8087	-130.881	55.7924	-105.047	-184.592	57.8884	-87.2288	-159.179	47.7646	-111.342	-127.865	28.5322	-101.877	-184.756	31.5053	-88.1309	-154.999	16.8485	-100.773	-138.766	4.35239	-73.6582	-185.622	1.63814	-82.41	-154.265	-6.91772	-83.8178	-140.457	-7.68065	-49.5146	-215.02	20.2667	-31.7707	-225.536	10.5027	-4.86627	-205.211	45.6527	-8.44516	
77	0.641667	-151.015	31.9807	9.61009	-120.357	26.0005	-8.56961	-92.0329	21.7697	-29.9441	-78.8061	15.0524	-50.7245	-161.397	65.8927	-65.7085	-143.363	68.0222	-95.7322	-121.991	46.1446	-111.442	-178.399	56.0593	-82.13	-160.853	49.188	-112.392	-134.673	20.4024	-117.974	-181.832	25.932	-88.9164	-157.655	7.18173	-101.509	-144.13	-9.33953	-72.1846	-186.071	-1.74879	-82.0916	-157.011	-18.5134	-81.6605	-149.722	-19.0278	-52.2911	-212.384	22.6514	-32.402	-220.317	13.1449	-0.522128	-193.698	42.593	-6.75338	
78	0.65	-138.401	13.0607	9.38476	-112.54	-1.92363	-10.6844	-87.3305	-13.5648	-27.656	-73.2567	-24.09	-46.7467	-145.496	46.9744	-69.7661	-130.865	50.1301	-95.8438	-116.799	33.5685	-118.934	-174.612	38.1697	-82.2776	-159.528	33.7481	-120.358	-140.465	10.9436	-137.247	-180.486	12.3526	-87.5158	-162.136	-11.9949	-105.136	-150.593	-29.4407	-78.088	-191.154	-16.2589	-77.9063	-163.731	-39.7933	-78.4804	-157.168	-38.7859	-48.3448	-202.756	14.6977	-29.39	-212.502	10.7415	-0.982141	-178.104	31.3298	-6.22832	
79	0.658333	-135.728	-7.05085	2.13085	-111.526	-27.3197	-10.8908	-84.0853	-43.697	-25.3013	-69.6047	-58.0204	-39.695	-140.637	20.1918	-76.1915	-126.245	20.5435	-107.29	-114.412	13.1609	-128.473	-169.623	15.3594	-90.8428	-160.635	11.5381	-123.16	-152.082	-9.3174	-150.613	-178.116	-11.4587	-95.954	-166.82	-38.8389	-105.681	-155.035	-54.0091	-76.3802	-193.893	-37.7212	-79.6866	-173.549	-63.9921	-76.3976	-164.378	-57.2572	-45.8758	-201.455	0.862761	-33.8696	-207.975	5.18003	-4.71568	-172.76	18.1988	-13.3331	
